<?xml version="1.0" standalone="no"?>
<!DOCTYPE svg PUBLIC "-//W3C//DTD SVG 20010904//EN"
 "http://www.w3.org/TR/2001/REC-SVG-20010904/DTD/svg10.dtd">
<svg version="1.0" xmlns="http://www.w3.org/2000/svg"
 width="600.000000pt" height="600.000000pt" viewBox="0 0 600.000000 600.000000"
 preserveAspectRatio="xMidYMid meet">

<g transform="translate(0.000000,600.000000) scale(0.100000,-0.100000)"
fill="#000000" stroke="none">
<path d="M3768 4543 c6 -2 18 -2 25 0 6 3 1 5 -13 5 -14 0 -19 -2 -12 -5z"/>
<path d="M3918 4533 c7 -3 16 -2 19 1 4 3 -2 6 -13 5 -11 0 -14 -3 -6 -6z"/>
<path d="M3398 4343 c7 -3 16 -2 19 1 4 3 -2 6 -13 5 -11 0 -14 -3 -6 -6z"/>
<path d="M2705 4325 c-16 -8 -23 -14 -14 -15 8 0 24 7 35 15 23 18 18 18 -21
0z"/>
<path d="M3448 4333 c6 -2 18 -2 25 0 6 3 1 5 -13 5 -14 0 -19 -2 -12 -5z"/>
<path d="M3620 4301 c58 -16 107 -27 108 -26 6 5 -128 43 -173 49 -22 4 7 -7
65 -23z"/>
<path d="M2935 4310 c-19 -8 -19 -9 3 -9 12 -1 22 4 22 9 0 6 -1 10 -2 9 -2 0
-12 -4 -23 -9z"/>
<path d="M2803 4277 c-23 -7 -45 -15 -49 -19 -11 -12 6 -9 71 11 65 21 47 27
-22 8z"/>
<path d="M3769 4255 c18 -8 36 -15 40 -15 13 1 -45 29 -59 29 -8 0 0 -6 19
-14z"/>
<path d="M2660 4224 l-25 -15 25 7 c14 3 32 10 40 15 13 7 13 8 0 8 -8 0 -26
-6 -40 -15z"/>
<path d="M3860 4206 c0 -2 7 -7 16 -10 8 -3 12 -2 9 4 -6 10 -25 14 -25 6z"/>
<path d="M2538 4183 c-10 -2 -18 -9 -18 -14 0 -6 10 -5 23 2 37 20 36 23 -5
12z"/>
<path d="M3919 4171 c13 -12 28 -21 34 -21 12 0 11 0 -28 24 l-30 17 24 -20z"/>
<path d="M2385 4160 c-3 -5 -1 -10 4 -10 6 0 11 5 11 10 0 6 -2 10 -4 10 -3 0
-8 -4 -11 -10z"/>
<path d="M2470 4150 c-24 -15 -7 -19 20 -5 15 8 19 14 10 14 -8 1 -22 -3 -30
-9z"/>
<path d="M4510 4110 c-52 -22 -102 -39 -110 -40 -9 0 -20 -4 -25 -9 -6 -4 -64
-27 -130 -51 -127 -45 -141 -52 -131 -69 4 -7 42 2 106 25 l100 36 37 -19 c35
-18 41 -29 73 -118 20 -54 41 -100 47 -102 25 -9 21 20 -13 94 -66 142 -50
184 86 233 54 20 90 38 90 46 0 21 -26 16 -130 -26z"/>
<path d="M2420 4120 c0 -5 7 -7 15 -4 8 4 15 8 15 10 0 2 -7 4 -15 4 -8 0 -15
-4 -15 -10z"/>
<path d="M3970 4126 c0 -2 7 -7 16 -10 8 -3 12 -2 9 4 -6 10 -25 14 -25 6z"/>
<path d="M2185 4030 c-10 -11 -14 -20 -9 -20 5 0 15 9 22 20 7 11 11 20 9 20
-2 0 -12 -9 -22 -20z"/>
<path d="M4070 4010 c6 -11 13 -20 16 -20 2 0 0 9 -6 20 -6 11 -13 20 -16 20
-2 0 0 -9 6 -20z"/>
<path d="M2100 3679 c-22 -6 -20 -7 13 -8 38 -1 47 3 25 11 -7 3 -24 1 -38 -3z"/>
<path d="M2444 3678 c-5 -7 -3 -8 6 -3 9 5 22 -2 38 -21 13 -16 21 -22 17 -14
-12 22 -37 50 -46 50 -4 0 -11 -5 -15 -12z"/>
<path d="M1834 3590 c0 -52 1 -74 3 -47 2 26 2 68 0 95 -2 26 -3 4 -3 -48z"/>
<path d="M1958 3673 c12 -2 30 -2 40 0 9 3 -1 5 -23 4 -22 0 -30 -2 -17 -4z"/>
<path d="M3240 3648 c8 -33 30 -86 97 -228 20 -41 50 -108 69 -147 18 -40 36
-73 40 -73 12 0 33 33 68 105 96 198 176 367 176 372 0 2 -14 3 -31 1 -37 -3
-31 4 -104 -153 -30 -66 -63 -137 -73 -157 -9 -21 -22 -38 -28 -38 -5 0 -25
33 -44 73 -106 231 -132 277 -155 277 -21 0 -22 -3 -15 -32z"/>
<path d="M4290 3676 c0 -4 50 -126 59 -144 5 -9 17 -37 26 -62 9 -25 21 -53
26 -63 5 -9 23 -52 40 -95 32 -80 45 -102 61 -102 5 0 24 34 43 75 19 41 41
75 48 75 7 0 28 -34 46 -75 18 -41 39 -75 46 -75 11 0 45 56 45 74 0 4 13 34
29 69 52 112 131 299 131 311 0 1 -13 1 -29 -2 -24 -3 -33 -13 -49 -51 -11
-25 -23 -57 -27 -71 -4 -14 -16 -40 -26 -59 -10 -18 -15 -40 -12 -49 4 -9 2
-13 -4 -9 -6 4 -17 -14 -25 -41 -9 -26 -21 -47 -29 -47 -11 0 -59 97 -97 195
-48 126 -56 140 -86 140 -19 0 -26 -4 -23 -12 53 -124 77 -185 77 -195 0 -24
-45 -123 -58 -128 -15 -5 -56 77 -103 207 -43 120 -51 132 -82 135 -15 1 -27
1 -27 -1z"/>
<path d="M2132 3620 c-10 -17 -10 -20 3 -20 8 0 15 9 15 20 0 11 -1 20 -3 20
-1 0 -8 -9 -15 -20z"/>
<path d="M1978 3603 c18 -2 45 -2 60 0 15 2 0 4 -33 4 -33 0 -45 -2 -27 -4z"/>
<path d="M2387 3591 c-4 -17 -3 -21 5 -13 5 5 8 16 6 23 -3 8 -7 3 -11 -10z"/>
<path d="M1462 3565 c0 -16 2 -22 5 -12 2 9 2 23 0 30 -3 6 -5 -1 -5 -18z"/>
<path d="M2440 3555 c0 -8 6 -15 13 -15 7 0 20 -19 30 -41 10 -23 20 -39 23
-37 2 3 -5 25 -16 50 -20 46 -50 71 -50 43z"/>
<path d="M2053 3483 c15 -2 37 -2 50 0 12 2 0 4 -28 4 -27 0 -38 -2 -22 -4z"/>
<path d="M1462 3410 c0 -19 2 -27 5 -17 2 9 2 25 0 35 -3 9 -5 1 -5 -18z"/>
<path d="M2506 3431 c-4 -7 -5 -15 -2 -18 9 -9 19 4 14 18 -4 11 -6 11 -12 0z"/>
<path d="M1940 3410 c15 -10 208 -15 198 -5 -3 3 -52 8 -109 10 -70 3 -99 2
-89 -5z"/>
<path d="M2426 3412 c-2 -4 11 -6 30 -4 19 2 34 6 34 8 0 8 -59 4 -64 -4z"/>
<path d="M1833 3350 c0 -30 2 -43 4 -27 2 15 2 39 0 55 -2 15 -4 2 -4 -28z"/>
<path d="M3100 3390 c0 -5 5 -10 11 -10 5 0 7 5 4 10 -3 6 -8 10 -11 10 -2 0
-4 -4 -4 -10z"/>
<path d="M2356 3375 c-9 -26 -7 -32 5 -12 6 10 9 21 6 23 -2 3 -7 -2 -11 -11z"/>
<path d="M2465 3341 c44 -3 86 -10 94 -15 10 -6 12 -5 9 5 -3 10 -27 14 -94
15 l-89 1 80 -6z"/>
<path d="M3055 3340 c3 -5 8 -10 11 -10 2 0 4 5 4 10 0 6 -5 10 -11 10 -5 0
-7 -4 -4 -10z"/>
<path d="M2246 3293 c-6 -14 -5 -15 5 -6 7 7 10 15 7 18 -3 3 -9 -2 -12 -12z"/>
<path d="M2587 3279 c4 -13 8 -18 11 -10 2 7 -1 18 -6 23 -8 8 -9 4 -5 -13z"/>
<path d="M1520 3280 c0 -5 12 -10 28 -9 24 0 25 1 7 9 -27 12 -35 12 -35 0z"/>
<path d="M1834 3248 l1 -43 158 -3 c145 -2 157 -1 156 15 0 11 -3 13 -6 6 -3
-10 -44 -13 -153 -13 l-149 0 -4 40 -4 40 1 -42z"/>
<path d="M1378 3273 c7 -3 16 -2 19 1 4 3 -2 6 -13 5 -11 0 -14 -3 -6 -6z"/>
<path d="M3020 3276 c0 -2 7 -9 15 -16 13 -11 14 -10 9 4 -5 14 -24 23 -24 12z"/>
<path d="M3120 3251 c0 -5 5 -13 10 -16 19 -12 10 -24 -22 -28 -25 -3 -21 -4
16 -5 45 -2 47 -1 35 15 -26 33 -39 44 -39 34z"/>
<path d="M1460 3216 c0 -14 19 -16 160 -16 88 0 160 3 160 8 0 4 -66 6 -146 4
-101 -2 -150 1 -160 9 -11 9 -14 8 -14 -5z"/>
<path d="M1355 3210 l-50 -7 53 -1 c29 -1 52 2 52 8 0 6 -1 9 -2 8 -2 0 -25
-4 -53 -8z"/>
<path d="M2210 3210 c0 -5 7 -10 16 -10 8 0 12 5 9 10 -3 6 -10 10 -16 10 -5
0 -9 -4 -9 -10z"/>
<path d="M2680 3210 c0 -5 5 -10 11 -10 5 0 7 5 4 10 -3 6 -8 10 -11 10 -2 0
-4 -4 -4 -10z"/>
<path d="M1689 3099 c-25 -25 -14 -43 37 -59 22 -8 34 -18 34 -30 0 -26 -28
-33 -64 -15 -25 13 -28 13 -16 2 27 -26 56 -29 81 -8 30 25 19 49 -31 65 -36
11 -51 40 -27 49 8 3 27 -1 42 -9 18 -9 25 -10 23 -2 -3 7 -17 15 -32 19 -21
6 -32 3 -47 -12z"/>
<path d="M2009 3093 c-2 -15 -1 -48 2 -73 4 -28 7 -34 7 -17 2 23 6 27 32 27
24 0 33 -6 41 -27 6 -16 13 -23 16 -16 2 7 0 20 -6 31 -7 13 -7 22 0 29 14 14
8 56 -9 59 -7 1 -8 0 -2 -3 15 -7 12 -39 -4 -53 -8 -6 -25 -10 -38 -8 -18 2
-23 9 -24 35 0 42 -11 52 -15 16z"/>
<path d="M2648 3113 l-38 -4 1 -57 c1 -42 3 -51 9 -32 4 14 5 37 2 53 -4 25
-2 27 32 27 20 0 36 5 36 10 0 6 -1 9 -2 8 -2 -1 -20 -3 -40 -5z"/>
<path d="M3036 3112 c-7 -13 -3 -62 5 -68 5 -3 9 8 9 25 0 20 6 31 18 33 14 3
13 5 -5 10 -13 3 -25 3 -27 0z"/>
<path d="M3960 3107 c-34 -17 -48 -69 -26 -102 9 -14 22 -25 28 -25 6 0 4 8
-5 18 -27 29 -22 77 11 101 31 23 28 26 -8 8z"/>
<path d="M4636 3113 c-3 -3 -6 -29 -5 -57 0 -43 2 -47 10 -27 5 14 8 32 7 40
-1 9 1 21 5 28 8 13 -6 27 -17 16z"/>
<path d="M1840 3040 c0 -39 4 -70 10 -70 5 0 7 13 4 30 -4 18 -1 36 6 45 9 10
9 15 1 15 -22 0 -12 39 12 43 19 4 18 4 -5 6 l-28 1 0 -70z"/>
<path d="M2353 3045 c0 -38 2 -53 4 -32 2 20 2 52 0 70 -2 17 -4 1 -4 -38z"/>
<path d="M2441 3091 c-13 -24 -14 -71 -2 -90 6 -10 8 0 4 27 -4 27 -1 47 7 57
15 18 61 20 79 3 11 -11 13 -10 9 2 -3 9 -20 16 -46 18 -32 2 -43 -1 -51 -17z"/>
<path d="M2900 3103 c43 -5 50 -12 60 -55 l8 -33 1 32 c1 42 -22 63 -67 61
l-37 -1 35 -4z"/>
<path d="M3281 3053 l1 -58 12 39 12 39 24 -34 c47 -67 60 -65 60 12 0 33 -4
58 -9 55 -5 -3 -7 -20 -5 -38 8 -62 -5 -64 -42 -10 -19 29 -39 52 -44 52 -6 0
-10 -26 -9 -57z"/>
<path d="M3460 3048 c0 -34 2 -59 5 -56 9 9 11 118 3 118 -4 0 -8 -28 -8 -62z"/>
<path d="M3808 3045 c5 -84 18 -84 18 0 -1 36 -5 65 -11 65 -6 0 -9 -26 -7
-65z"/>
<path d="M4020 3090 c11 -11 20 -31 20 -45 0 -26 -31 -65 -52 -65 -6 0 -9 -3
-6 -6 7 -7 50 14 60 30 22 32 -2 106 -33 106 -5 0 0 -9 11 -20z"/>
<path d="M4110 3104 c0 -3 10 -19 21 -36 12 -17 25 -44 29 -62 8 -31 8 -31 9
-3 1 15 12 45 26 67 14 22 21 40 16 40 -5 0 -16 -11 -25 -25 -9 -14 -20 -25
-25 -25 -4 0 -14 11 -21 25 -12 23 -30 34 -30 19z"/>
<path d="M4301 3068 c-27 -64 -33 -88 -23 -88 5 0 12 9 15 20 4 15 14 20 37
20 23 0 33 -5 37 -20 3 -11 9 -20 14 -20 13 0 -34 123 -48 128 -8 2 -21 -15
-32 -40z m49 -25 c0 -7 -9 -13 -20 -13 -22 0 -23 3 -13 39 6 23 7 23 20 6 7
-11 13 -25 13 -32z"/>
<path d="M4457 3092 c-21 -23 -22 -75 -2 -92 12 -10 13 -7 7 17 -18 65 18 100
75 74 23 -11 25 -10 13 3 -17 22 -73 20 -93 -2z"/>
<path d="M1491 3084 c0 -11 3 -14 6 -6 3 7 2 16 -1 19 -3 4 -6 -2 -5 -13z"/>
<path d="M4533 3033 c14 -4 17 -11 12 -30 -4 -18 -2 -24 7 -21 7 3 14 17 16
31 3 24 0 27 -25 26 -18 -1 -22 -3 -10 -6z"/>
<path d="M1481 2994 c1 -16 5 -40 9 -54 6 -17 7 -9 3 25 -6 56 -14 74 -12 29z"/>
<path d="M2212 3005 c2 -11 10 -20 18 -20 8 0 16 9 18 20 3 17 1 17 -7 5 -10
-13 -12 -13 -22 0 -8 12 -10 12 -7 -5z"/>
<path d="M2519 2993 c-13 -16 -12 -17 4 -4 9 7 17 15 17 17 0 8 -8 3 -21 -13z"/>
<path d="M1883 2973 c9 -2 23 -2 30 0 6 3 -1 5 -18 5 -16 0 -22 -2 -12 -5z"/>
<path d="M3818 2913 c7 -3 16 -2 19 1 4 3 -2 6 -13 5 -11 0 -14 -3 -6 -6z"/>
<path d="M4050 2910 c30 -4 59 -3 65 1 5 5 -19 8 -55 8 l-65 -2 55 -7z"/>
<path d="M1541 2884 c0 -11 3 -14 6 -6 3 7 2 16 -1 19 -3 4 -6 -2 -5 -13z"/>
<path d="M4045 2869 c-11 -16 -1 -19 13 -3 7 8 8 14 3 14 -5 0 -13 -5 -16 -11z"/>
<path d="M3984 2824 c-18 -14 -18 -15 4 -4 12 6 22 13 22 15 0 8 -5 6 -26 -11z"/>
<path d="M1560 2811 c0 -6 4 -13 10 -16 6 -3 7 1 4 9 -7 18 -14 21 -14 7z"/>
<path d="M1585 2758 c4 -13 11 -27 16 -33 5 -5 4 5 -2 23 -12 36 -24 44 -14
10z"/>
<path d="M3535 2734 c-22 -13 -35 -24 -30 -24 12 0 75 38 75 45 0 6 2 7 -45
-21z"/>
<path d="M3468 2683 c7 -3 16 -2 19 1 4 3 -2 6 -13 5 -11 0 -14 -3 -6 -6z"/>
<path d="M3331 2614 c-37 -26 -36 -30 3 -13 14 7 27 18 30 25 6 17 9 18 -33
-12z"/>
<path d="M1690 2596 c0 -2 8 -10 18 -17 15 -13 16 -12 3 4 -13 16 -21 21 -21
13z"/>
<path d="M1761 2534 c57 -42 100 -67 106 -60 3 3 -3 9 -13 13 -10 4 -40 22
-66 40 -56 39 -78 45 -27 7z"/>
<path d="M3170 2535 c-14 -8 -20 -14 -14 -15 5 0 19 7 30 15 24 18 16 19 -16
0z"/>
<path d="M3070 2494 c-19 -7 -28 -13 -19 -13 9 -1 32 6 50 14 42 18 17 17 -31
-1z"/>
<path d="M1790 2476 c0 -2 9 -6 20 -9 11 -3 18 -1 14 4 -5 9 -34 13 -34 5z"/>
<path d="M3286 2471 c-4 -5 3 -7 14 -4 23 6 26 13 6 13 -8 0 -17 -4 -20 -9z"/>
<path d="M1880 2462 c0 -14 146 -65 234 -81 60 -11 94 -7 40 4 -103 22 -161
38 -210 60 -63 28 -64 28 -64 17z"/>
<path d="M1860 2442 c0 -10 159 -69 206 -76 28 -4 20 0 -26 15 -36 11 -91 31
-122 44 -32 14 -58 21 -58 17z"/>
<path d="M3135 2425 c-38 -13 -65 -24 -59 -24 16 -1 144 39 144 44 0 8 -10 5
-85 -20z"/>
<path d="M2673 2383 c9 -2 23 -2 30 0 6 3 -1 5 -18 5 -16 0 -22 -2 -12 -5z"/>
<path d="M2950 2380 c-24 -8 -24 -8 5 -8 17 0 39 3 50 8 18 8 18 9 -5 8 -14 0
-36 -4 -50 -8z"/>
<path d="M2203 2363 c9 -2 23 -2 30 0 6 3 -1 5 -18 5 -16 0 -22 -2 -12 -5z"/>
<path d="M2860 2360 c-20 -6 -21 -8 -5 -8 11 0 29 3 40 8 25 11 -1 11 -35 0z"/>
<path d="M2353 2353 c9 -2 23 -2 30 0 6 3 -1 5 -18 5 -16 0 -22 -2 -12 -5z"/>
<path d="M2718 2333 c7 -3 16 -2 19 1 4 3 -2 6 -13 5 -11 0 -14 -3 -6 -6z"/>
</g>
</svg>
